<?xml version="1.0" encoding="UTF-8"?>
<svg version="1.1" xmlns="http://www.w3.org/2000/svg" width="400" height="400">
<path d="M0 0 C1.23391228 -0.01058945 1.23391228 -0.01058945 2.49275208 -0.02139282 C36.44592663 -0.24667095 36.44592663 -0.24667095 51.171875 3.203125 C52.06503418 3.40180176 52.95819336 3.60047852 53.87841797 3.80517578 C80.05158526 9.7223948 105.43787555 20.28134731 127.171875 36.203125 C128.73228516 37.33814453 128.73228516 37.33814453 130.32421875 38.49609375 C137.93010108 44.13609215 144.93699192 50.32606186 151.77490234 56.86914062 C152.96618746 58.00671173 154.17117264 59.12990724 155.37890625 60.25 C187.35060068 90.72403868 210.20998236 140.36129218 211.33300781 184.46582031 C211.35254956 185.98756911 211.36630412 187.50940058 211.375 189.03125 C211.38205963 189.85385818 211.38911926 190.67646637 211.39639282 191.52400208 C211.62167095 225.47717663 211.62167095 225.47717663 208.171875 240.203125 C207.87385986 241.54286377 207.87385986 241.54286377 207.56982422 242.90966797 C201.6526052 269.08283526 191.09365269 294.46912555 175.171875 316.203125 C174.41519531 317.24339844 173.65851563 318.28367187 172.87890625 319.35546875 C167.23890785 326.96135108 161.04893814 333.96824192 154.50585938 340.80615234 C153.36828827 341.99743746 152.24509276 343.20242264 151.125 344.41015625 C120.65096132 376.38185068 71.01370782 399.24123236 26.90917969 400.36425781 C25.38743089 400.38379956 23.86559942 400.39755412 22.34375 400.40625 C21.10983772 400.41683945 21.10983772 400.41683945 19.85099792 400.42764282 C-14.10217663 400.65292095 -14.10217663 400.65292095 -28.828125 397.203125 C-30.16786377 396.90510986 -30.16786377 396.90510986 -31.53466797 396.60107422 C-57.70783526 390.6838552 -83.09412555 380.12490269 -104.828125 364.203125 C-105.86839844 363.44644531 -106.90867187 362.68976563 -107.98046875 361.91015625 C-115.58635108 356.27015785 -122.59324192 350.08018814 -129.43115234 343.53710938 C-130.62243746 342.39953827 -131.82742264 341.27634276 -133.03515625 340.15625 C-165.00685068 309.68221132 -187.86623236 260.04495782 -188.98925781 215.94042969 C-189.00879956 214.41868089 -189.02255412 212.89684942 -189.03125 211.375 C-189.03830963 210.55239182 -189.04536926 209.72978363 -189.05264282 208.88224792 C-189.27792095 174.92907337 -189.27792095 174.92907337 -185.828125 160.203125 C-185.62944824 159.30996582 -185.43077148 158.41680664 -185.22607422 157.49658203 C-179.3088552 131.32341474 -168.74990269 105.93712445 -152.828125 84.203125 C-152.07144531 83.16285156 -151.31476563 82.12257813 -150.53515625 81.05078125 C-144.89515785 73.44489892 -138.70518814 66.43800808 -132.16210938 59.60009766 C-131.02453827 58.40881254 -129.90134276 57.20382736 -128.78125 55.99609375 C-97.01652998 22.67028706 -45.85508406 0.26201706 0 0 Z " fill="#000000" transform="translate(188.828125,-0.203125)"/>
<path d="M0 0 C13.86 0 27.72 0 42 0 C44.11277926 5.86125861 46.22544598 11.72246727 48.33203125 17.5859375 C49.9207964 22.0060774 51.51511441 26.42409026 53.11737061 30.83935547 C53.81644401 32.76761734 54.51336499 34.69664226 55.20947266 36.62597656 C56.10257629 39.10062459 56.99931353 41.57396463 57.89990234 44.04589844 C58.30547363 45.17286133 58.71104492 46.29982422 59.12890625 47.4609375 C59.49056885 48.45915527 59.85223145 49.45737305 60.22485352 50.48583984 C61 53 61 53 61 56 C61.99 56.33 62.98 56.66 64 57 C64.13277344 57.77085937 64.26554687 58.54171875 64.40234375 59.3359375 C64.66724609 60.84027344 64.66724609 60.84027344 64.9375 62.375 C65.19853516 63.87160156 65.19853516 63.87160156 65.46484375 65.3984375 C65.87712062 67.96909656 65.87712062 67.96909656 67 70 C71.14093698 70.20970559 71.14093698 70.20970559 75 69 C76.65684137 72.7522584 77.50208163 76.26353061 78.125 80.3125 C78.29257812 81.38113281 78.46015625 82.44976562 78.6328125 83.55078125 C78.75398438 84.35902344 78.87515625 85.16726562 79 86 C81.34289414 85.96275274 81.34289414 85.96275274 84 85 C85.7594823 82.99286553 87.21475548 81.13281764 88.6875 78.9375 C90.08008851 76.90961491 91.50016288 74.95361889 93 73 C93.66 73 94.32 73 95 73 C94.90659302 67.76693114 94.80052891 62.534332 94.68261719 57.30175781 C94.64428435 55.52090527 94.60943911 53.73997416 94.578125 51.95898438 C94.53256729 49.40205766 94.47455893 46.8456739 94.4140625 44.2890625 C94.40251129 43.49005524 94.39096008 42.69104797 94.37905884 41.86782837 C94.42741056 37.46542788 94.42741056 37.46542788 92 34 C89.42938689 33.35232207 89.42938689 33.35232207 87 33 C87.55773559 26.75336136 88.64069109 23.29149042 91 17 C92.98 11.39 94.96 5.78 97 0 C110.2 0 123.4 0 137 0 C131 7 131 7 130 8 C129.8977719 9.4917972 129.86481135 10.9884018 129.85955811 12.48368835 C129.85384796 13.45243393 129.84813782 14.4211795 129.84225464 15.41928101 C129.84113678 16.49094513 129.84001892 17.56260925 129.83886719 18.66674805 C129.83390228 19.7886705 129.82893738 20.91059296 129.82382202 22.06651306 C129.80915268 25.79825442 129.80238961 29.52995323 129.796875 33.26171875 C129.79112639 35.84666445 129.78536863 38.43161013 129.77960205 41.01655579 C129.77042489 45.75144796 129.76413086 50.48632304 129.7611053 55.22122258 C129.75663006 62.18683056 129.73911145 69.15224177 129.7101047 76.11778992 C129.68585519 82.15072715 129.67815947 88.18357156 129.67642975 94.21656227 C129.67340049 96.78220501 129.66536281 99.34784688 129.65224457 101.91345787 C129.63519759 105.50454982 129.63706165 109.09516335 129.64355469 112.6862793 C129.62973251 114.27859375 129.62973251 114.27859375 129.6156311 115.90307617 C129.66201233 124.08844017 131.05673961 128.05673961 137 134 C120.5 134 104 134 87 134 C89.475 131.525 89.475 131.525 92 129 C94.59297806 125.36418323 94.25669956 121.47184382 94.1953125 117.171875 C94.19106766 116.04836639 94.19106766 116.04836639 94.18673706 114.90216064 C94.1755726 112.51794224 94.15047531 110.13410421 94.125 107.75 C94.11496535 106.13021377 94.10584035 104.51042164 94.09765625 102.890625 C94.07564555 98.92693754 94.04114175 94.96353319 94 91 C93.21238281 90.86722656 92.42476563 90.73445313 91.61328125 90.59765625 C88.76530551 89.94632548 87.82535834 89.20964431 86 87 C85.13375 87.7734375 85.13375 87.7734375 84.25 88.5625 C82 90 82 90 79.9375 90.0625 C76.85196524 88.37043255 76.23716706 86.24019944 75 83 C74.49985768 80.32135313 74.23463564 77.72177338 74 75 C68.7939085 86.62688482 64.83252348 98.71718922 60.6875 110.75 C59.93979774 112.91157757 59.19175373 115.07303695 58.44335938 117.234375 C56.62496178 122.48822655 54.81079617 127.74352401 53 133 C50.25004765 130.25004765 49.44426876 127.00753844 48.21484375 123.40234375 C47.95369278 122.65287979 47.69254181 121.90341583 47.42347717 121.13124084 C46.58934577 118.73518548 45.76294909 116.33655894 44.9375 113.9375 C44.10748761 111.53523645 43.27582737 109.13357645 42.44081116 106.73304749 C41.92124659 105.23840322 41.40476119 103.7426845 40.8915863 102.24583435 C39.91101605 98.85928202 39.91101605 98.85928202 38 96 C37.01 97.98 36.02 99.96 35 102 C34.01 102 33.02 102 32 102 C31.97291433 100.39592672 31.95356517 98.7917215 31.9375 97.1875 C31.92589844 96.29417969 31.91429687 95.40085937 31.90234375 94.48046875 C32 92 32 92 33 89 C33.66779358 81.90035302 32.47142491 76.04756639 30.04296875 69.4140625 C29.73933914 68.54985687 29.43570953 67.68565125 29.12287903 66.79525757 C28.48375389 64.98604211 27.83714561 63.17945399 27.18334961 61.37548828 C26.18459411 58.61697407 25.21068345 55.85061496 24.24023438 53.08203125 C23.6134079 51.31720023 22.98520091 49.5528588 22.35546875 47.7890625 C22.0647197 46.96612701 21.77397064 46.14319153 21.47441101 45.2953186 C20.06502565 41.42919507 18.77872094 38.12415513 16 35 C12.39007621 35.65585189 12.39007621 35.65585189 9 37 C8.9906543 36.18321777 8.98130859 35.36643555 8.97167969 34.52490234 C8.91784493 30.80766494 8.83422006 27.091668 8.75 23.375 C8.73582031 22.08980469 8.72164062 20.80460937 8.70703125 19.48046875 C8.63372 10.38073114 8.63372 10.38073114 4 3 C2.68 2.01 1.36 1.02 0 0 Z " fill="#FDFDFD" transform="translate(200,135)"/>
<path d="M0 0 C14.19 0 28.38 0 43 0 C43.28076167 16.9080914 43.28076167 16.9080914 43.34179688 24.19921875 C43.38340206 29.14556431 43.4322373 34.09099016 43.52807617 39.03662109 C43.60498042 43.03084141 43.64616365 47.02407375 43.6641407 51.01897812 C43.67692595 52.53149824 43.70188688 54.04397349 43.7401104 55.55606461 C44.01311505 66.81938168 41.90477422 74.29944894 36 84 C35.67 84 35.34 84 35 84 C35.34650567 77.04598968 36.08191853 70.75047313 38.37890625 64.15625 C39.18452651 61.73336613 39.18452651 61.73336613 39 58 C38.18360682 60.87394498 37.37177859 63.7490513 36.5625 66.625 C36.33240234 67.43324219 36.10230469 68.24148437 35.86523438 69.07421875 C34.25450949 74.81680313 32.83390513 80.3664975 32.9375 86.375 C32.958125 87.57125 32.97875 88.7675 33 90 C36.31939397 88.34030301 37.1635919 84.69596481 38.625 81.4375 C38.94984375 80.72658203 39.2746875 80.01566406 39.609375 79.28320312 C40.41190993 77.52470748 41.20668959 75.76267633 42 74 C42.33 74 42.66 74 43 74 C43.05807043 77.10408807 43.09361914 80.2080364 43.125 83.3125 C43.14175781 84.19357422 43.15851563 85.07464844 43.17578125 85.98242188 C43.18544922 87.25375977 43.18544922 87.25375977 43.1953125 88.55078125 C43.21102295 89.72120972 43.21102295 89.72120972 43.22705078 90.9152832 C43 93 43 93 41 96 C41.28274138 99.31086259 41.28274138 99.31086259 43 102 C43.08838648 104.37541051 43.11537523 106.7223358 43.09765625 109.09765625 C43.09515869 110.39453369 43.09266113 111.69141113 43.09008789 113.02758789 C43.08098389 114.68910889 43.07187988 116.35062988 43.0625 118.0625 C43.041875 123.321875 43.02125 128.58125 43 134 C28.81 134 14.62 134 0 134 C2.475 132.02 2.475 132.02 5 130 C8.75923945 124.61977819 8.42524504 119.26570631 8.38818359 112.94921875 C8.39344055 111.8460733 8.39869751 110.74292786 8.40411377 109.60635376 C8.41729754 105.96659103 8.40858105 102.32726704 8.3984375 98.6875 C8.40045869 96.15454016 8.40337051 93.62158089 8.40713501 91.08862305 C8.41155618 85.78265296 8.4054209 80.47683955 8.39111328 75.17089844 C8.37478808 69.04621289 8.38007713 62.921827 8.3965925 56.7971487 C8.41187318 50.89286759 8.41022231 44.98867916 8.4014473 39.0843811 C8.3994468 36.57736163 8.40189925 34.07033451 8.40888596 31.56332397 C8.41650905 28.05893733 8.40488329 24.55512514 8.38818359 21.05078125 C8.39425629 20.01579498 8.40032898 18.98080872 8.40658569 17.91445923 C8.35931403 12.55672254 8.17046204 8.53756384 5 4 C3.35 2.68 1.7 1.36 0 0 Z " fill="#FDFDFD" transform="translate(74,135)"/>
<path d="M0 0 C25.69282512 -0.84206915 25.69282512 -0.84206915 34 4 C34.71800781 4.4125 35.43601563 4.825 36.17578125 5.25 C43.47230584 10.08686753 48.7510473 17.56642737 51 26 C52.04855168 36.1807053 51.1673812 45.40922484 44.94140625 53.76171875 C40.29471877 59.12930884 35.83681305 63.72106232 29 66 C29.83402344 66.21914062 30.66804688 66.43828125 31.52734375 66.6640625 C40.44199663 69.17609527 49.05694054 72.50657721 55 80 C55 80.99 55 81.98 55 83 C55.99 83.33 56.98 83.66 58 84 C59.6875 87.0625 59.6875 87.0625 61 90 C61.66 90 62.32 90 63 90 C63 90.66 63 91.32 63 92 C63.66 92 64.32 92 65 92 C64.67515625 92.72058594 64.3503125 93.44117188 64.015625 94.18359375 C62.99103302 97.02486612 62.80422008 99.06684055 62.75 102.0625 C62.03696471 110.8803697 58.19575597 118.34074565 51.8125 124.4375 C44.04868336 130.7538254 35.42924819 134.14286022 25.484375 134.09765625 C24.23398438 134.09443359 22.98359375 134.09121094 21.6953125 134.08789062 C20.39335937 134.07951172 19.09140625 134.07113281 17.75 134.0625 C15.77386719 134.05573242 15.77386719 134.05573242 13.7578125 134.04882812 C10.50516259 134.03704316 7.25260416 134.02059011 4 134 C4.61875 133.69980957 5.2375 133.39961914 5.875 133.09033203 C12.8220746 129.52580593 17.17136694 124.14159831 20 117 C20.34675781 116.29875 20.69351563 115.5975 21.05078125 114.875 C22.68828828 109.91530792 22.68265045 104.6730622 22.94726562 99.48046875 C23.42401228 93.2025178 24.78611007 89.73659297 29 85 C29.66 85 30.32 85 31 85 C31.28875 84.236875 31.5775 83.47375 31.875 82.6875 C33 80 33 80 35 77 C35.66 77 36.32 77 37 77 C37 76.34 37 75.68 37 75 C32.44841232 77.26387869 30.46128762 79.89923067 27.8125 84.1875 C26.5909578 86.15644852 25.33172394 88.10383678 24 90 C23.34 90 22.68 90 22 90 C21.80664062 89.28972656 21.61328125 88.57945312 21.4140625 87.84765625 C21.02347656 86.46900391 21.02347656 86.46900391 20.625 85.0625 C20.24214844 83.68771484 20.24214844 83.68771484 19.8515625 82.28515625 C19.23339896 79.83254913 19.23339896 79.83254913 17 79 C16.46375 77.9275 15.9275 76.855 15.375 75.75 C12.96697397 71.29239456 9.38389483 69.30899315 5 67 C5.68835938 66.06994141 5.68835938 66.06994141 6.390625 65.12109375 C14.86813226 52.88569986 17.44470327 39.5944514 16 25 C14.47454087 17.06418453 11.95411988 9.69143812 6 4 C2.83324955 1.99409221 2.83324955 1.99409221 0 1 C0 0.67 0 0.34 0 0 Z " fill="#FAFBFC" transform="translate(126,135)"/>
<path d="M0 0 C13.86 0 27.72 0 42 0 C44.11320006 5.86242598 46.22602224 11.72485612 48.33203125 17.58984375 C49.91747457 22.0013324 51.51126028 26.40957686 53.11737061 30.81356812 C53.81695445 32.73396534 54.51371837 34.65536077 55.20947266 36.57714844 C56.10129902 39.03924575 56.99799752 41.49958451 57.89990234 43.95800781 C58.30547363 45.08174805 58.71104492 46.20548828 59.12890625 47.36328125 C59.67140015 48.85275269 59.67140015 48.85275269 60.22485352 50.37231445 C61 53 61 53 61 57 C59.53125 58.46484375 59.53125 58.46484375 57.5 59.9375 C48.45841491 67.41634199 43.38307829 79.72168489 38 90 C37.01 89.01 37.01 89.01 36 88 C36.29489095 81.55555395 38.20272515 76.00794867 40.4375 70 C42.62685609 64.04134014 44.57417095 58.19053416 46 52 C43.50643544 54.49356456 43.11370887 56.43373043 42.125 59.8125 C41.77953125 60.97007812 41.4340625 62.12765625 41.078125 63.3203125 C40.72234375 64.53460938 40.3665625 65.74890625 40 67 C39.29753043 69.39755917 38.58947076 71.79348977 37.875 74.1875 C37.56304687 75.25355469 37.25109375 76.31960937 36.9296875 77.41796875 C36 80 36 80 34 82 C33.81874069 81.47017517 33.63748138 80.94035034 33.45072937 80.39447021 C31.56121161 74.87601242 29.66159615 69.36110614 27.75610352 63.84814453 C27.04647915 61.79076888 26.33942639 59.73250436 25.63500977 57.67333984 C24.62151534 54.71213627 23.5987881 51.75426208 22.57421875 48.796875 C22.26159592 47.87694763 21.94897308 46.95702026 21.62687683 46.00921631 C21.32679214 45.1486261 21.02670746 44.28803589 20.7175293 43.40136719 C20.45771774 42.64635925 20.19790619 41.89135132 19.93022156 41.11346436 C18.90409652 38.7821072 17.59571962 36.97642715 16 35 C12.39007621 35.65585189 12.39007621 35.65585189 9 37 C8.9906543 36.18321777 8.98130859 35.36643555 8.97167969 34.52490234 C8.91784493 30.80766494 8.83422006 27.091668 8.75 23.375 C8.73582031 22.08980469 8.72164062 20.80460937 8.70703125 19.48046875 C8.63372 10.38073114 8.63372 10.38073114 4 3 C2.68 2.01 1.36 1.02 0 0 Z " fill="#FCFCFD" transform="translate(200,135)"/>
<path d="M0 0 C25.69282512 -0.84206915 25.69282512 -0.84206915 34 4 C34.71800781 4.4125 35.43601563 4.825 36.17578125 5.25 C43.47230584 10.08686753 48.7510473 17.56642737 51 26 C52.04855168 36.1807053 51.1673812 45.40922484 44.94140625 53.76171875 C39.88763465 59.59954936 35.01370124 65.05721162 27 66 C26.67 66.99 26.34 67.98 26 69 C25.505 68.01 25.505 68.01 25 67 C26.05715382 64.64355098 27.16162751 62.39891563 28.375 60.125 C31.28327614 54.79161441 31.28327614 54.79161441 33 49 C29.04908069 52.60470473 26.69606896 56.00608551 24.375 60.8125 C23.9272522 61.73409912 23.9272522 61.73409912 23.47045898 62.67431641 C21.3781874 67.03824642 19.55690099 71.42087944 18 76 C14.2767933 74.7589311 12.75859975 72.75859975 10 70 C8.35151603 68.9703018 6.68721397 67.96492839 5 67 C5.68835938 66.06994141 5.68835938 66.06994141 6.390625 65.12109375 C14.86813226 52.88569986 17.44470327 39.5944514 16 25 C14.47454087 17.06418453 11.95411988 9.69143812 6 4 C2.83324955 1.99409221 2.83324955 1.99409221 0 1 C0 0.67 0 0.34 0 0 Z " fill="#FBFBFC" transform="translate(126,135)"/>
<path d="M0 0 C-0.7393182 6.10132069 -2.32604633 11.65173492 -4.16015625 17.5 C-5.03033852 21.126434 -5.14688179 24.28531208 -5 28 C-2.01630652 27.6669985 -1.06869272 27.07486434 1 24.8203125 C1.99 23.48613281 1.99 23.48613281 3 22.125 C5.43733146 18.85935668 7.60973941 16.28539888 11 14 C9.6664858 20.54630493 7.8614572 26.71236397 5.62890625 33.00390625 C5.30591049 33.92662827 4.98291473 34.84935028 4.65013123 35.80003357 C3.62569802 38.72255898 2.59412333 41.64250599 1.5625 44.5625 C0.87389863 46.52523269 0.18574365 48.48812205 -0.50195312 50.45117188 C-3.2666422 58.32774202 -6.04382053 66.19291425 -9 74 C-11.7046318 71.2953682 -12.58857527 68.14364644 -13.85546875 64.61328125 C-14.12136307 63.87804733 -14.38725739 63.14281342 -14.66120911 62.38529968 C-15.2215829 60.8271014 -15.77868364 59.26772275 -16.33276367 57.70727539 C-17.17998356 55.33355934 -18.04944219 52.96878331 -18.91992188 50.60351562 C-19.46233493 49.08643641 -20.00339424 47.56887236 -20.54296875 46.05078125 C-20.93502754 44.99882317 -20.93502754 44.99882317 -21.33500671 43.9256134 C-23.19570811 38.56537517 -23.16592565 34.37814422 -21.27905273 28.91113281 C-21.00005127 28.34749023 -20.7210498 27.78384766 -20.43359375 27.203125 C-20.11680664 26.55956055 -19.80001953 25.91599609 -19.47363281 25.25292969 C-19.13170898 24.59196289 -18.78978516 23.93099609 -18.4375 23.25 C-18.08397461 22.55551758 -17.73044922 21.86103516 -17.36621094 21.14550781 C-6.31975859 0 -6.31975859 0 0 0 Z " fill="#FBFCFD" transform="translate(262,194)"/>
<path d="M0 0 C0.72083786 6.60768036 -0.62543765 9.72428433 -4.58984375 15.01953125 C-6.17756207 17.04492391 -6.17756207 17.04492391 -7 20 C-7.99 20.66 -8.98 21.32 -10 22 C-8.5459375 22.5259375 -8.5459375 22.5259375 -7.0625 23.0625 C-4 25 -4 25 -3.125 28.18359375 C-2.88176929 35.60973138 -7.32494771 42.87154902 -12.07421875 48.42578125 C-15.54308555 51.61713871 -18.18196473 53.58138382 -23 54 C-23.66 53.34 -24.32 52.68 -25 52 C-24.43181818 46.43181818 -24.43181818 46.43181818 -23 45 C-22.92674832 42.13732433 -22.90761795 39.299281 -22.9375 36.4375 C-22.94201172 35.63119141 -22.94652344 34.82488281 -22.95117188 33.99414062 C-22.96299482 31.99606244 -22.98093086 29.99802217 -23 28 C-25.31 32.62 -27.62 37.24 -30 42 C-30.99 42 -31.98 42 -33 42 C-33.19749984 36.0137117 -32.54531512 30.75882374 -31.1875 24.9375 C-30.9390332 23.7918457 -30.9390332 23.7918457 -30.68554688 22.62304688 C-29.59151963 17.79694179 -28.08104935 13.49005776 -26 9 C-25.67 9 -25.34 9 -25 9 C-25.60492317 15.17021633 -26.88890581 21.02983971 -28.37890625 27.046875 C-29.13720984 30.14943869 -29.13720984 30.14943869 -29 34 C-28.56300781 33.12432373 -28.56300781 33.12432373 -28.1171875 32.23095703 C-11.53355431 -0.7863787 -11.53355431 -0.7863787 0 0 Z " fill="#33A7EA" transform="translate(139,183)"/>
<path d="M0 0 C0.66 0.33 1.32 0.66 2 1 C1.4918892 2.62595456 0.98368603 4.2518803 0.47509766 5.87768555 C0.02924502 7.30576108 -0.41506363 8.73431949 -0.85791016 10.16333008 C-2.03006106 13.93792031 -3.22610099 17.70107812 -4.48046875 21.44921875 C-4.83105347 22.5155957 -4.83105347 22.5155957 -5.1887207 23.60351562 C-5.63741749 24.96604704 -6.09523209 26.32561837 -6.56323242 27.68164062 C-7.83597226 31.58907793 -7.95324693 34.04727591 -7 38 C-6.71914551 37.42145264 -6.43829102 36.84290527 -6.14892578 36.24682617 C7.49903367 8.42215266 7.49903367 8.42215266 16.22265625 5.171875 C17.10244141 5.08679688 17.10244141 5.08679688 18 5 C19.71349285 6.71349285 19.61186231 9.10564155 20 11.4375 C20.60555519 15.34682538 20.60555519 15.34682538 22 19 C26.14093698 19.20970559 26.14093698 19.20970559 30 18 C31.65684137 21.7522584 32.50208163 25.26353061 33.125 29.3125 C33.37636719 30.91544922 33.37636719 30.91544922 33.6328125 32.55078125 C33.75398438 33.35902344 33.87515625 34.16726562 34 35 C36.34289414 34.96275274 36.34289414 34.96275274 39 34 C40.7594823 31.99286553 42.21475548 30.13281764 43.6875 27.9375 C45.08008851 25.90961491 46.50016288 23.95361889 48 22 C48.66 22 49.32 22 50 22 C50.84888195 27.37625234 51.0024305 31.65370398 50 37 C50.66 37.33 51.32 37.66 52 38 C49 40 49 40 46.5 39.8125 C43.86337925 38.95559826 42.74310252 38.11007147 41 36 C40.13375 36.7734375 40.13375 36.7734375 39.25 37.5625 C37 39 37 39 34.9375 39.0625 C31.85196524 37.37043255 31.23716706 35.24019944 30 32 C29.49985768 29.32135313 29.23463564 26.72177338 29 24 C25.91969888 23.65686051 25.91969888 23.65686051 24.0625 25.828125 C23.381875 26.62734375 22.70125 27.4265625 22 28.25 C21.319375 29.03890625 20.63875 29.8278125 19.9375 30.640625 C18.22920379 32.72088893 16.59241185 34.83033886 15 37 C13.68 36.67 12.36 36.34 11 36 C10.57228795 29.57540865 12.14312105 24.18099979 14 18.0625 C14.42925781 16.6074707 14.42925781 16.6074707 14.8671875 15.12304688 C15.56974417 12.74606348 16.28084401 10.37200342 17 8 C6.28583536 16.49284246 0.6787145 27.88997648 -4.39453125 40.30859375 C-5.9577509 44.07130839 -7.91813481 47.50011817 -10 51 C-10.99 51 -11.98 51 -13 51 C-13.76783388 38.14589208 -9.29955781 26.39634011 -5.375 14.3125 C-4.9632589 13.02678323 -4.55179915 11.74097632 -4.140625 10.45507812 C-1.13042004 1.13042004 -1.13042004 1.13042004 0 0 Z " fill="#57C1FF" transform="translate(245,186)"/>
<path d="M0 0 C0.66 0 1.32 0 2 0 C1.4253379 4.78642607 0.01754357 8.53788787 -2.0625 12.875 C-2.61035156 14.02742187 -3.15820312 15.17984375 -3.72265625 16.3671875 C-4.14417969 17.23601562 -4.56570312 18.10484375 -5 19 C-4.67 18.67 -4.34 18.34 -4 18 C3.94912745 16.94011634 11.3706584 20.38542438 17.73828125 24.97265625 C24.34490522 30.60988723 24.34490522 30.60988723 25 35 C19.60162602 39.04878049 19.60162602 39.04878049 16.6875 38.8125 C15 38 15 38 14 37 C13.95919217 35.00041636 13.95745644 32.99954746 14 31 C12.02 31.33 10.04 31.66 8 32 C7.87625 33.11375 7.7525 34.2275 7.625 35.375 C7 39 7 39 5 41 C2.375 41.125 2.375 41.125 0 41 C-0.8125 39 -0.8125 39 -1 36 C0.34017264 33.09986641 1.94149396 30.44713255 4 28 C4.66 28 5.32 28 6 28 C6 27.34 6 26.68 6 26 C1.44841232 28.26387869 -0.53871238 30.89923067 -3.1875 35.1875 C-4.4090422 37.15644852 -5.66827606 39.10383678 -7 41 C-7.66 41 -8.32 41 -9 41 C-9.19335938 40.28972656 -9.38671875 39.57945312 -9.5859375 38.84765625 C-9.97652344 37.46900391 -9.97652344 37.46900391 -10.375 36.0625 C-10.63023437 35.14597656 -10.88546875 34.22945312 -11.1484375 33.28515625 C-11.76660104 30.83254913 -11.76660104 30.83254913 -14 30 C-13.3029971 25.70318213 -11.91789906 21.77698199 -10.3125 17.75 C-10.04993408 17.0904834 -9.78736816 16.4309668 -9.5168457 15.75146484 C-7.18496805 10.09259029 -4.37989919 4.37989919 0 0 Z " fill="#F9FBFC" transform="translate(157,184)"/>
<path d="M0 0 C-0.43645273 5.45565919 -1.57414388 8.71767985 -5 13 C-6.65191491 14.35156675 -8.31522656 15.68962066 -10 17 C-10 17.66 -10 18.32 -10 19 C-11.98260426 20.68732277 -13.9832342 22.35366057 -16 24 C-16.33 24.66 -16.66 25.32 -17 26 C-16.13375 25.505 -15.2675 25.01 -14.375 24.5 C-10.85968503 22.93763779 -8.79060983 22.56924888 -5 23 C-4.34 23.66 -3.68 24.32 -3 25 C-3.17011091 27.77847815 -3.78487429 28.7978003 -5.8203125 30.7109375 C-6.58085937 31.26007813 -7.34140625 31.80921875 -8.125 32.375 C-12.26258239 35.39586465 -16.1402981 38.63644649 -20 42 C-20.96703203 28.52870658 -20.85197864 19.8137685 -12 9 C-11.12794922 7.87464844 -11.12794922 7.87464844 -10.23828125 6.7265625 C-4.78839286 0 -4.78839286 0 0 0 Z " fill="#02070A" transform="translate(137,185)"/>
<path d="M0 0 C1.9375 1.5 1.9375 1.5 3 3 C3.66 2.34 4.32 1.68 5 1 C5.99 1 6.98 1 8 1 C6.75297849 7.35450323 5.42635741 13.68327435 4 20 C4.59167969 19.39671875 5.18335938 18.7934375 5.79296875 18.171875 C14.26473825 9.60336425 14.26473825 9.60336425 18 7 C18.66 7 19.32 7 20 7 C18.40319592 11.20159073 15.27263263 13.77377637 12 16.6875 C11.4534375 17.18572266 10.906875 17.68394531 10.34375 18.19726562 C6.29882219 21.85058891 6.29882219 21.85058891 4 23 C-0.63368514 20.98018853 -1.95188174 18.48635429 -4 14 C-4.66 13.67 -5.32 13.34 -6 13 C-7.02611949 11.34928604 -8.02308143 9.68029994 -9 8 C-9.98244845 6.65368175 -10.97676564 5.31558703 -12 4 C-8.0397765 0.15978327 -5.4966101 -0.71252353 0 0 Z " fill="#35AEF4" transform="translate(187,205)"/>
<path d="M0 0 C0.66 0.33 1.32 0.66 2 1 C1.4918892 2.62595456 0.98368603 4.2518803 0.47509766 5.87768555 C0.02924502 7.30576108 -0.41506363 8.73431949 -0.85791016 10.16333008 C-2.03006106 13.93792031 -3.22610099 17.70107812 -4.48046875 21.44921875 C-4.83105347 22.5155957 -4.83105347 22.5155957 -5.1887207 23.60351562 C-5.63741749 24.96604704 -6.09523209 26.32561837 -6.56323242 27.68164062 C-7.83597226 31.58907793 -7.95324693 34.04727591 -7 38 C-6.71914551 37.42145264 -6.43829102 36.84290527 -6.14892578 36.24682617 C7.49903367 8.42215266 7.49903367 8.42215266 16.22265625 5.171875 C17.10244141 5.08679688 17.10244141 5.08679688 18 5 C19 6 19 6 19.25 9 C19.21147976 13.63205912 17.63254021 17.71458195 16 22 C15.34 21.67 14.68 21.34 14 21 C14.99 16.71 15.98 12.42 17 8 C6.12330227 15.86824942 0.55252856 28.19886253 -4.39453125 40.30859375 C-5.9577509 44.07130839 -7.91813481 47.50011817 -10 51 C-10.99 51 -11.98 51 -13 51 C-13.76783388 38.14589208 -9.29955781 26.39634011 -5.375 14.3125 C-4.9632589 13.02678323 -4.55179915 11.74097632 -4.140625 10.45507812 C-1.13042004 1.13042004 -1.13042004 1.13042004 0 0 Z " fill="#4FBEFE" transform="translate(245,186)"/>
<path d="M0 0 C1.74814517 2.62221776 2.83165747 4.9405341 4.0625 7.8125 C6.48560316 12.78203791 9.27877023 15.10738985 14.01171875 17.84375 C16 19 16 19 18 21 C6.12 21 -5.76 21 -18 21 C-16 19 -16 19 -13.1875 17.6875 C-6.80871496 14.31049615 -3.21244578 9.3820856 -0.8125 2.6875 C-0.544375 1.800625 -0.27625 0.91375 0 0 Z " fill="#F6F6F6" transform="translate(209,248)"/>
<path d="M0 0 C0.99 0 1.98 0 3 0 C3 0.66 3 1.32 3 2 C1.66666667 3.33333333 0.33333333 4.66666667 -1 6 C-1.309375 6.639375 -1.61875 7.27875 -1.9375 7.9375 C-3.42904418 10.83285046 -5.68135939 12.74081171 -8 15 C-9.4807848 17.9615696 -9.35314037 20.83506295 -9.5625 24.125 C-9.64628906 25.40632813 -9.73007813 26.68765625 -9.81640625 28.0078125 C-9.87699219 28.99523437 -9.93757812 29.98265625 -10 31 C-10.33 31 -10.66 31 -11 31 C-11.33 27.7 -11.66 24.4 -12 21 C-13.65 21.66 -15.3 22.32 -17 23 C-19 21 -19 21 -19.23046875 18.8984375 C-19.13889527 13.52057694 -18.78848574 8.32227877 -18 3 C-17.01 3 -16.02 3 -15 3 C-11.57142857 10.28571429 -11.57142857 10.28571429 -12 15 C-11.34 15 -10.68 15 -10 15 C-9.61521484 14.17048828 -9.61521484 14.17048828 -9.22265625 13.32421875 C-7.81916624 10.65624254 -6.17841485 8.27304145 -4.4375 5.8125 C-3.81746094 4.93207031 -3.19742188 4.05164063 -2.55859375 3.14453125 C-1 1 -1 1 0 0 Z " fill="#4D9ECD" transform="translate(160,210)"/>
<path d="M0 0 C0.33 0 0.66 0 1 0 C1.16327289 8.88485887 1.28710959 17.76918965 1.3626852 26.65522957 C1.39898595 30.78290485 1.44809962 34.90954271 1.52807617 39.03662109 C1.60498042 43.03084141 1.64616365 47.02407375 1.6641407 51.01897812 C1.67692595 52.53149824 1.70188688 54.04397349 1.7401104 55.55606461 C2.01311505 66.81938168 -0.09522578 74.29944894 -6 84 C-6.33 84 -6.66 84 -7 84 C-6.65334923 77.04307755 -5.8285039 70.86051171 -3.625 64.25 C-2.76443789 61.15197639 -2.93731918 58.1967218 -3 55 C-2.6778653 54.21563065 -2.35573059 53.43126129 -2.02383423 52.62312317 C-0.93663744 49.83766142 -0.72635083 47.81809636 -0.68115234 44.8425293 C-0.66128265 43.84186935 -0.64141296 42.84120941 -0.62094116 41.81022644 C-0.60938995 40.7423439 -0.59783875 39.67446136 -0.5859375 38.57421875 C-0.56657135 37.47149124 -0.5472052 36.36876373 -0.5272522 35.23262024 C-0.46757077 31.71765834 -0.42111625 28.20266349 -0.375 24.6875 C-0.33680974 22.30141817 -0.2977574 19.91534997 -0.2578125 17.52929688 C-0.16187857 11.6863191 -0.07679753 5.84325894 0 0 Z " fill="#C5C5C5" transform="translate(116,135)"/>
<path d="M0 0 C1.15518918 0.90484792 2.29885406 1.8244206 3.4375 2.75 C4.07558594 3.26046875 4.71367187 3.7709375 5.37109375 4.296875 C7.18810554 6.19667629 7.60423197 7.43586908 8 10 C2.60162602 14.04878049 2.60162602 14.04878049 -0.3125 13.8125 C-2 13 -2 13 -3 12 C-3.04080783 10.00041636 -3.04254356 7.99954746 -3 6 C-4.98 6.33 -6.96 6.66 -9 7 C-9.12375 8.11375 -9.2475 9.2275 -9.375 10.375 C-10 14 -10 14 -12 16 C-14.625 16.125 -14.625 16.125 -17 16 C-17.625 13.625 -17.625 13.625 -18 11 C-17.34 10.34 -16.68 9.68 -16 9 C-16 10.65 -16 12.3 -16 14 C-15.01 13.67 -14.02 13.34 -13 13 C-13 10.36 -13 7.72 -13 5 C-11.71802734 4.70996094 -11.71802734 4.70996094 -10.41015625 4.4140625 C-9.30542969 4.15367187 -8.20070312 3.89328125 -7.0625 3.625 C-5.96035156 3.36976563 -4.85820312 3.11453125 -3.72265625 2.8515625 C-2.82417969 2.57054687 -1.92570312 2.28953125 -1 2 C-0.67 1.34 -0.34 0.68 0 0 Z " fill="#5BC2FE" transform="translate(174,209)"/>
<path d="M0 0 C0.33 0.66 0.66 1.32 1 2 C1.66 2 2.32 2 3 2 C1.50005949 5.87484632 -0.15823896 9.66756029 -1.859375 13.45703125 C-2.66956564 15.26331244 -3.4707238 17.07365706 -4.265625 18.88671875 C-4.69359375 19.85222656 -5.1215625 20.81773437 -5.5625 21.8125 C-5.95566406 22.70582031 -6.34882813 23.59914062 -6.75390625 24.51953125 C-7.96027377 26.92092114 -9.3194244 28.91024077 -11 31 C-11.99 30.67 -12.98 30.34 -14 30 C-14.37903387 24.99823928 -13.42802556 22.30645512 -10.8125 18.0625 C-10.17570313 17.0209375 -9.53890625 15.979375 -8.8828125 14.90625 C-7.37172322 12.57378025 -5.82891861 10.3034787 -4.1875 8.0625 C-2.270482 5.3786748 -1.03616242 3.10848727 0 0 Z " fill="#43BAFF" transform="translate(188,225)"/>
<path d="M0 0 C0.66 0 1.32 0 2 0 C2.84888195 5.37625234 3.0024305 9.65370398 2 15 C2.66 15.33 3.32 15.66 4 16 C1 18 1 18 -1.5 17.8125 C-4.13662075 16.95559826 -5.25689748 16.11007147 -7 14 C-7.598125 14.495 -8.19625 14.99 -8.8125 15.5 C-11 17 -11 17 -14 17 C-13 14 -13 14 -10.69921875 12.66796875 C-7.44016536 10.65405298 -5.94849497 8.47311152 -3.8125 5.3125 C-2.58891029 3.50869949 -1.32881345 1.72775082 0 0 Z " fill="#2A8AC2" transform="translate(293,208)"/>
<path d="M0 0 C2.27477677 3.53854164 1.99082706 5.70947373 1.125 9.75 C0.92132813 10.73484375 0.71765625 11.7196875 0.5078125 12.734375 C0.25644531 13.85585937 0.25644531 13.85585937 0 15 C0.59167969 14.39671875 1.18335938 13.7934375 1.79296875 13.171875 C10.26473825 4.60336425 10.26473825 4.60336425 14 2 C14.66 2 15.32 2 16 2 C14.40319592 6.20159073 11.27263263 8.77377637 8 11.6875 C7.4534375 12.18572266 6.906875 12.68394531 6.34375 13.19726562 C2.29882219 16.85058891 2.29882219 16.85058891 0 18 C-3.447301 16.49733034 -4.86644151 15.21369359 -6.875 12 C-8 9 -8 9 -7 6 C-5.37109375 4.39453125 -5.37109375 4.39453125 -3.4375 2.8125 C-2.79683594 2.28269531 -2.15617188 1.75289062 -1.49609375 1.20703125 C-0.75552734 0.60955078 -0.75552734 0.60955078 0 0 Z " fill="#31A1E1" transform="translate(191,210)"/>
<path d="M0 0 C0.66 0 1.32 0 2 0 C1.48700691 5.59870045 -0.68626862 9.62586204 -3.375 14.4375 C-6.18945107 19.54436686 -8.79381124 24.59839591 -11 30 C-11.99 30 -12.98 30 -14 30 C-13.3029971 25.70318213 -11.91789906 21.77698199 -10.3125 17.75 C-10.04993408 17.0904834 -9.78736816 16.4309668 -9.5168457 15.75146484 C-7.18496805 10.09259029 -4.37989919 4.37989919 0 0 Z " fill="#69C8FF" transform="translate(157,184)"/>
<path d="M0 0 C0.33 0 0.66 0 1 0 C0.39507683 6.17021633 -0.88890581 12.02983971 -2.37890625 18.046875 C-3.13720984 21.14943869 -3.13720984 21.14943869 -3 25 C-0.69 20.71 1.62 16.42 4 12 C4.66 12.33 5.32 12.66 6 13 C4.57625024 16.13144586 3.13371224 19.2538722 1.6875 22.375 C1.28337891 23.26445312 0.87925781 24.15390625 0.46289062 25.0703125 C0.06650391 25.92109375 -0.32988281 26.771875 -0.73828125 27.6484375 C-1.09962158 28.43395996 -1.46096191 29.21948242 -1.83325195 30.02880859 C-3 32 -3 32 -6 34 C-7 33 -7 33 -7.17578125 29.50390625 C-7.11428864 24.82734096 -6.24664893 20.47836034 -5.1875 15.9375 C-5.02185547 15.17373047 -4.85621094 14.40996094 -4.68554688 13.62304688 C-3.59151963 8.79694179 -2.08104935 4.49005776 0 0 Z " fill="#51BEFE" transform="translate(113,192)"/>
<path d="M0 0 C2.99977878 1.49988939 3.55588143 4.05159126 5 7 C5.66 7.66 6.32 8.32 7 9 C6.44570313 9.61488281 5.89140625 10.22976562 5.3203125 10.86328125 C4.59585937 11.67152344 3.87140625 12.47976562 3.125 13.3125 C2.40570313 14.11300781 1.68640625 14.91351563 0.9453125 15.73828125 C-1.11605502 18.04189083 -1.11605502 18.04189083 -3 21 C-3.66 21 -4.32 21 -5 21 C-4.42351925 13.64987044 -2.28953836 6.98575424 0 0 Z " fill="#EFF7FB" transform="translate(263,199)"/>
<path d="M0 0 C0.33 0.66 0.66 1.32 1 2 C-2.43759113 8.92041372 -6.76114407 14.47377119 -13 19 C-13.66 19 -14.32 19 -15 19 C-15.36328125 16.88671875 -15.36328125 16.88671875 -15 14 C-13.11679884 11.72556015 -11.32746674 9.80930865 -9.1875 7.8125 C-8.36668945 7.01295898 -8.36668945 7.01295898 -7.52929688 6.19726562 C-5.12321399 3.87867666 -2.78552166 1.85701444 0 0 Z " fill="#030B0F" transform="translate(132,216)"/>
<path d="M0 0 C0.33 0 0.66 0 1 0 C1.7920173 10.73623447 0.84997276 17.65048996 -5 27 C-5.33 27 -5.66 27 -6 27 C-5.80020935 17.24658395 -3.34712887 9.04095325 0 0 Z " fill="#EFF9FF" transform="translate(115,192)"/>
<path d="M0 0 C0.66 0.33 1.32 0.66 2 1 C-1.50658637 12.38864776 -5.19650683 23.70715431 -9 35 C-9.33 35 -9.66 35 -10 35 C-9.47324079 27.23030171 -7.44298148 20.37165392 -5 13 C-4.63132813 11.85660156 -4.26265625 10.71320313 -3.8828125 9.53515625 C-1.1513448 1.1513448 -1.1513448 1.1513448 0 0 Z " fill="#55C0FF" transform="translate(245,186)"/>
<path d="M0 0 C0 2.64 0 5.28 0 8 C-0.99 8 -1.98 8 -3 8 C-2.67 6.02 -2.34 4.04 -2 2 C-10.26688158 5.61676069 -15.25640663 12.9427229 -19 21 C-19.99 20.67 -20.98 20.34 -22 20 C-9.77588451 -0.21251923 -9.77588451 -0.21251923 0 0 Z " fill="#319DDB" transform="translate(139,183)"/>
<path d="M0 0 C0.33 1.65 0.66 3.3 1 5 C-0.65 6.32 -2.3 7.64 -4 9 C-5.65 7.68 -7.3 6.36 -9 5 C-6.81610567 0.16423399 -5.20641855 -0.13701101 0 0 Z " fill="#070C0E" transform="translate(186,207)"/>
<path d="M0 0 C0.33 0 0.66 0 1 0 C1 11.55 1 23.1 1 35 C1.99 35.33 2.98 35.66 4 36 C3.67 37.98 3.34 39.96 3 42 C2.01 42 1.02 42 0 42 C0 28.14 0 14.28 0 0 Z " fill="#CCCCCC" transform="translate(295,172)"/>
<path d="M0 0 C1 3 1 3 -0.0390625 5.12109375 C-3.00348562 9.45090387 -5.65398755 12.9460453 -10 16 C-10.515625 16.53625 -11.03125 17.0725 -11.5625 17.625 C-13.22546327 19.21566052 -14.91031534 20.06324481 -17 21 C-15.71480435 18.13302508 -14.42870746 16.02392288 -12 14 C-11.34 14 -10.68 14 -10 14 C-10.33 13.01 -10.66 12.02 -11 11 C-10.29875 10.67 -9.5975 10.34 -8.875 10 C-4.99347129 7.29980612 -2.66623758 3.85734028 0 0 Z " fill="#3FA4DF" transform="translate(137,190)"/>
<path d="M0 0 C1.57159226 3.14318453 0.04018399 5.92933389 -0.9375 9.125 C-1.13279297 9.78371094 -1.32808594 10.44242188 -1.52929688 11.12109375 C-2.01304986 12.74933552 -2.50569075 14.37493182 -3 16 C-6.07563891 14.46218054 -6.70322574 12.08755777 -8 9 C-6.90101298 5.70303895 -6.05402613 4.95329411 -3.4375 2.8125 C-2.79683594 2.28269531 -2.15617188 1.75289062 -1.49609375 1.20703125 C-0.75552734 0.60955078 -0.75552734 0.60955078 0 0 Z " fill="#080E11" transform="translate(191,210)"/>
<path d="M0 0 C0.66 0 1.32 0 2 0 C5.38188247 7.96043105 5.38188247 7.96043105 3.875 12.0625 C3.25625 12.701875 2.6375 13.34125 2 14 C1.01 14 0.02 14 -1 14 C-1.18451025 4.58997722 -1.18451025 4.58997722 0 0 Z " fill="#0B1921" transform="translate(144,216)"/>
<path d="M0 0 C0.99 0 1.98 0 3 0 C3.33 0.99 3.66 1.98 4 3 C3.34 3 2.68 3 2 3 C1.67 7.62 1.34 12.24 1 17 C4.0745356 16.2236068 4.0745356 16.2236068 6 14 C5.67 15.65 5.34 17.3 5 19 C3.125 19.625 3.125 19.625 1 20 C-1 18 -1 18 -1.23046875 15.8984375 C-1.13889527 10.52057694 -0.78848574 5.32227877 0 0 Z " fill="#2E96D2" transform="translate(142,213)"/>
<path d="M0 0 C2.20759194 6.62277581 -2.1517066 14.89651415 -5 21 C-5.99 21 -6.98 21 -8 21 C-7.301897 16.49723568 -5.71324524 12.44421829 -4 8.25 C-3.59007812 7.22326172 -3.59007812 7.22326172 -3.171875 6.17578125 C-1.13600498 1.13600498 -1.13600498 1.13600498 0 0 Z " fill="#4CBDFE" transform="translate(151,193)"/>
<path d="M0 0 C2.55708823 3.83563234 3.32094721 6.40578853 4.0625 10.9375 C4.23910156 11.99839844 4.41570312 13.05929688 4.59765625 14.15234375 C5 17 5 17 5 20 C2.75566264 18.20936965 2.05385319 17.26886105 1.48046875 14.40625 C1.38378906 13.4471875 1.28710938 12.488125 1.1875 11.5 C0.81098208 8.58537227 0.81098208 8.58537227 0 6 C-2.92112751 3.69985241 -2.92112751 3.69985241 -6 3 C-6 2.67 -6 2.34 -6 2 C-4.02 1.34 -2.04 0.68 0 0 Z " fill="#32A3E5" transform="translate(274,204)"/>
<path d="M0 0 C1.32 0.33 2.64 0.66 4 1 C2.02 4.96 0.04 8.92 -2 13 C-2.33 12.34 -2.66 11.68 -3 11 C-3.66 11 -4.32 11 -5 11 C-3.77472971 6.94718288 -2.30119506 3.55639236 0 0 Z " fill="#8DD5FF" transform="translate(179,240)"/>
<path d="M0 0 C1.65 1.32 3.3 2.64 5 4 C3.9024777 6.99324263 3.32317108 7.84610901 0.375 9.25 C-0.40875 9.4975 -1.1925 9.745 -2 10 C-2.25 3.375 -2.25 3.375 0 0 Z " fill="#F4FAFD" transform="translate(176,211)"/>
<path d="M0 0 C0.33 0.66 0.66 1.32 1 2 C-2.4896752 5.59231271 -5.96644873 9.01867949 -10 12 C-10.99 11.67 -11.98 11.34 -13 11 C-13 8.69 -13 6.38 -13 4 C-12.67 4 -12.34 4 -12 4 C-11.67 5.65 -11.34 7.3 -11 9 C-7.37 6.03 -3.74 3.06 0 0 Z " fill="#68C2F6" transform="translate(308,212)"/>
<path d="M0 0 C0.66 0.66 1.32 1.32 2 2 C1.26530861 3.63197842 0.51161878 5.25541307 -0.25 6.875 C-0.87648437 8.23238281 -0.87648437 8.23238281 -1.515625 9.6171875 C-3.12441692 12.19972189 -4.19219328 12.95607186 -7 14 C-7.33 12.35 -7.66 10.7 -8 9 C-7.01 9.33 -6.02 9.66 -5 10 C-3.35 6.7 -1.7 3.4 0 0 Z " fill="#52BFFF" transform="translate(182,242)"/>
<path d="M0 0 C0.66 0 1.32 0 2 0 C1.67 2.31 1.34 4.62 1 7 C1.94875 6.34 2.8975 5.68 3.875 5 C7 3 7 3 9 3 C8.01906046 5.45234885 7.31296172 6.7809268 5.125 8.3125 C2.64990694 9.1132654 1.41712366 8.86325845 -1 8 C-1.625 5.6875 -1.625 5.6875 -2 3 C-1.34 2.01 -0.68 1.02 0 0 Z " fill="#38A7E8" transform="translate(116,228)"/>
<path d="M0 0 C2.13657538 3.56095897 2.78253778 6.86821778 3 11 C1.625 13.9375 1.625 13.9375 0 16 C-0.33 16 -0.66 16 -1 16 C-1.11138159 10.54230189 -0.91657981 5.38490641 0 0 Z " fill="#266A92" transform="translate(234,217)"/>
<path d="M0 0 C0.66 0.33 1.32 0.66 2 1 C1.39301257 5.12751449 -0.03810791 8.3321148 -2 12 C-2.99 12 -3.98 12 -5 12 C-5 8.7 -5 5.4 -5 2 C-4.67 2 -4.34 2 -4 2 C-3.67 3.65 -3.34 5.3 -3 7 C-2.01 4.69 -1.02 2.38 0 0 Z " fill="#37A0DE" transform="translate(237,225)"/>
<path d="M0 0 C0.66 0 1.32 0 2 0 C2 6.6 2 13.2 2 20 C1.67 20 1.34 20 1 20 C0.95101562 19.25234375 0.90203125 18.5046875 0.8515625 17.734375 C0.77679688 16.74953125 0.70203125 15.7646875 0.625 14.75 C0.55539063 13.77546875 0.48578125 12.8009375 0.4140625 11.796875 C0.15104404 9.018256 0.15104404 9.018256 -1.09375 6.8125 C-2 5 -2 5 -1.125 2.25 C-0.75375 1.5075 -0.3825 0.765 0 0 Z " fill="#90C4E2" transform="translate(115,185)"/>
<path d="M0 0 C0.99 0.33 1.98 0.66 3 1 C3.37851209 6.93002267 2.10575375 11.47239641 0 17 C-0.66 16.67 -1.32 16.34 -2 16 C-1.505 14.2675 -1.505 14.2675 -1 12.5 C0.08401934 8.22499413 0.15701377 4.39638547 0 0 Z " fill="#47B7F7" transform="translate(261,191)"/>
<path d="M0 0 C0 1.98 0 3.96 0 6 C-1.65 6.33 -3.3 6.66 -5 7 C-5 5.02 -5 3.04 -5 1 C-2 0 -2 0 0 0 Z " fill="#05121A" transform="translate(295,217)"/>
<path d="M0 0 C0.66 1.32 1.32 2.64 2 4 C0.783125 3.773125 -0.43375 3.54625 -1.6875 3.3125 C-4.97620691 2.88023657 -5.87346463 2.93936847 -9 4.4375 C-9.99 5.2109375 -9.99 5.2109375 -11 6 C-11 3 -11 3 -9.4375 1.3125 C-6.19368832 -0.43416783 -3.62656715 -0.20922503 0 0 Z " fill="#31A0E0" transform="translate(187,205)"/>
<path d="M0 0 C0.33 0 0.66 0 1 0 C1 1.65 1 3.3 1 5 C4.16115776 3.63016497 4.9927092 3.0109362 7 0 C7.125 2.375 7.125 2.375 7 5 C5 7 5 7 2.375 7.125 C1.59125 7.08375 0.8075 7.0425 0 7 C-1.125 2.25 -1.125 2.25 0 0 Z " fill="#50BEFF" transform="translate(157,218)"/>
<path d="M0 0 C0.99 0 1.98 0 3 0 C3 1.65 3 3.3 3 5 C6.465 4.505 6.465 4.505 10 4 C8.8125 5.5625 8.8125 5.5625 7 7 C4.5 7 4.5 7 2 6 C0.1875 3.4375 0.1875 3.4375 -1 1 C-0.67 0.67 -0.34 0.34 0 0 Z " fill="#2E95D0" transform="translate(287,219)"/>
<path d="M0 0 C1.32 0.33 2.64 0.66 4 1 C3.67 2.98 3.34 4.96 3 7 C2.01 7 1.02 7 0 7 C0 4.69 0 2.38 0 0 Z " fill="#69C3F7" transform="translate(295,207)"/>
<path d="M0 0 C2.12508244 3.18762365 2.5020163 5.26512223 3 9 C2.67 8.01 2.34 7.02 2 6 C0.01751285 5.28293018 -1.98415349 4.61709587 -4 4 C-4.66 3.34 -5.32 2.68 -6 2 C-4.02 1.34 -2.04 0.68 0 0 Z " fill="#4291BF" transform="translate(274,204)"/>
<path d="M0 0 C0.66 0.66 1.32 1.32 2 2 C0.02 4.64 -1.96 7.28 -4 10 C-4.66 9.34 -5.32 8.68 -6 8 C-4.02 5.36 -2.04 2.72 0 0 Z " fill="#2F9BD9" transform="translate(130,222)"/>
<path d="M0 0 C-1.38009621 3.33523252 -2.84950652 5.18607951 -6 7 C-6.99 6.67 -7.98 6.34 -9 6 C-7.8803014 4.99406757 -6.7540588 3.9954151 -5.625 3 C-4.68527344 2.1646875 -4.68527344 2.1646875 -3.7265625 1.3125 C-2 0 -2 0 0 0 Z " fill="#2D93CE" transform="translate(207,212)"/>
<path d="M0 0 C0.99 0 1.98 0 3 0 C3 0.66 3 1.32 3 2 C1.46875 3.5078125 1.46875 3.5078125 -0.5 5.125 C-1.1496875 5.66382813 -1.799375 6.20265625 -2.46875 6.7578125 C-2.9740625 7.16773438 -3.479375 7.57765625 -4 8 C-4 4.0521912 -2.66275435 2.81491174 0 0 Z " fill="#55C0FF" transform="translate(160,210)"/>
<path d="M0 0 C0.33 0.66 0.66 1.32 1 2 C1.66 2 2.32 2 3 2 C2.34 3.65 1.68 5.3 1 7 C0.01 7 -0.98 7 -2 7 C-1.34 4.69 -0.68 2.38 0 0 Z " fill="#37B0F6" transform="translate(188,225)"/>
<path d="M0 0 C1.32 0 2.64 0 4 0 C4.33 0.99 4.66 1.98 5 3 C3.02 3.99 3.02 3.99 1 5 C0.67 3.35 0.34 1.7 0 0 Z " fill="#41B9FF" transform="translate(174,251)"/>
<path d="M0 0 C2 4 2 4 1.125 7.25 C0.75375 8.1575 0.3825 9.065 0 10 C-0.66 9.67 -1.32 9.34 -2 9 C-1.34 6.03 -0.68 3.06 0 0 Z " fill="#2E98D5" transform="translate(191,212)"/>
<path d="M0 0 C0.99 0 1.98 0 3 0 C3.33 0.99 3.66 1.98 4 3 C3.34 3 2.68 3 2 3 C2 4.65 2 6.3 2 8 C1.34 7.67 0.68 7.34 0 7 C0 4.69 0 2.38 0 0 Z " fill="#3392C9" transform="translate(142,213)"/>
<path d="M0 0 C0.99 0.33 1.98 0.66 3 1 C-2.75 6 -2.75 6 -5 6 C-3.86525052 2.59575156 -3.03188696 1.78346291 0 0 Z " fill="#35A5E6" transform="translate(186,212)"/>
<path d="M0 0 C0.66 0 1.32 0 2 0 C1.67 1.98 1.34 3.96 1 6 C0.01 6.33 -0.98 6.66 -2 7 C-1.125 1.125 -1.125 1.125 0 0 Z " fill="#5ABDF6" transform="translate(116,228)"/>
</svg>
